<svg width="271" height="235" viewBox="0 0 271 235" fill="none" xmlns="http://www.w3.org/2000/svg">
<g clip-path="url(#clip0_473_1910)">
<path fill-rule="evenodd" clip-rule="evenodd" d="M17.27 66.0002H32.33V26.0002L77.43 3.49023V66.0002H151.86V66.2102V101.79H77.43V202.79H144.87C143.912 211.394 139.999 219.398 133.8 225.44C130.805 228.3 127.346 230.63 123.57 232.33C119.846 233.996 115.81 234.852 111.73 234.84H68.17C63.2502 234.828 58.4207 233.517 54.17 231.04C49.7055 228.456 45.8268 224.973 42.78 220.81C39.4308 216.189 36.8446 211.061 35.12 205.62C33.2128 199.6 32.2711 193.315 32.33 187V101.82H0L17.27 66.0002Z" fill="#83B727"/>
<path fill-rule="evenodd" clip-rule="evenodd" d="M253.29 169.43H238.29V208.93L193.18 231.39V169.39H118.71V169.18V133.64H193.16V32.0001H125.7C126.148 27.6504 127.392 23.4201 129.37 19.5201C131.224 15.7241 133.728 12.2821 136.77 9.35011C139.771 6.51088 143.229 4.19841 147 2.51011C150.724 0.844241 154.76 -0.011315 158.84 0.000112994H202.4C207.32 0.0120829 212.149 1.32293 216.4 3.80011C220.845 6.38255 224.709 9.85505 227.75 14.0001C231.101 18.6164 233.687 23.742 235.41 29.1801C237.334 35.2114 238.289 41.5096 238.24 47.8401V133.61H270.57L253.29 169.4V169.43Z" fill="#2E2D25"/>
</g>
<defs>
<clipPath id="clip0_473_1910">
<rect width="271" height="235" fill="white"/>
</clipPath>
</defs>
</svg>
